# xmcd
#
# Track frame offsets: 
#        150
#        16785
#        38420
#        58500
#        83082
#        101917
#        118330
#        134812
#        163130
#        188962
#        209337
#        227627
#
# Disc length: 3301 seconds
#
# Revision: 14
# Processed by: cddbd v1.5.2PL0 Copyright (c) Steve Scherf et al.
# Submitted via: ExactAudioCopy v0.99pb3
#
DISCID=a40ce30c,a90ce30c
DTITLE=Bonnie Raitt - Longing in Their Hearts
DYEAR=1994
DGENRE=Rock
TTITLE0=Love Sneakin' Up On You
TTITLE1=Longing In Their Hearts
TTITLE2=You
TTITLE3=Cool, Clear Water
TTITLE4=Circle Dance
TTITLE5=I Sho Do
TTITLE6=Dimming Of The Day
TTITLE7=Feeling of Falling
TTITLE8=Steal Your Heart Away
TTITLE9=Storm Warning
TTITLE10=Hell To Pay
TTITLE11=Shadow Of Doubt
EXTD=1994 Capital Records Inc.\nCDP 0777-7 81427 2 0 YEAR: 1994
EXTT0=
EXTT1=
EXTT2=
EXTT3=
EXTT4=
EXTT5=
EXTT6=
EXTT7=
EXTT8=
EXTT9=
EXTT10=
EXTT11=
PLAYORDER=
